<?xml version="1.0" encoding="UTF-8" standalone="no"?>
<!-- Generator: Adobe Illustrator 15.0.0, SVG Export Plug-In . SVG Version: 6.00 Build 0)  -->

<svg
   xmlns:dc="http://purl.org/dc/elements/1.1/"
   xmlns:cc="http://creativecommons.org/ns#"
   xmlns:rdf="http://www.w3.org/1999/02/22-rdf-syntax-ns#"
   xmlns:svg="http://www.w3.org/2000/svg"
   xmlns="http://www.w3.org/2000/svg"
   xmlns:sodipodi="http://sodipodi.sourceforge.net/DTD/sodipodi-0.dtd"
   xmlns:inkscape="http://www.inkscape.org/namespaces/inkscape"
   version="1.1"
   id="Layer_1"
   x="0px"
   y="0px"
   width="72"
   height="72"
   viewBox="0 0 72 72"
   enable-background="new 0 0 73.583 71.417"
   xml:space="preserve"
   inkscape:version="0.48.0 r9654"
   sodipodi:docname="notifry.svg"
   inkscape:export-filename="/home/daniel/notifry/android/assets/notifry.png"
   inkscape:export-xdpi="90"
   inkscape:export-ydpi="90"><metadata
   id="metadata105"><rdf:RDF><cc:Work
       rdf:about=""><dc:format>image/svg+xml</dc:format><dc:type
         rdf:resource="http://purl.org/dc/dcmitype/StillImage" /><dc:title></dc:title></cc:Work></rdf:RDF></metadata><defs
   id="defs103" /><sodipodi:namedview
   pagecolor="#ffffff"
   bordercolor="#666666"
   borderopacity="1"
   objecttolerance="10"
   gridtolerance="10"
   guidetolerance="10"
   inkscape:pageopacity="0"
   inkscape:pageshadow="2"
   inkscape:window-width="1153"
   inkscape:window-height="771"
   id="namedview101"
   showgrid="false"
   inkscape:zoom="4.0466556"
   inkscape:cx="36.7915"
   inkscape:cy="35.7085"
   inkscape:window-x="0"
   inkscape:window-y="24"
   inkscape:window-maximized="0"
   inkscape:current-layer="Layer_1" />
<g
   id="g3"
   transform="translate(-1.4827059,0.33588253)">
	<radialGradient
   id="SVGID_1_"
   cx="37.170898"
   cy="43.266602"
   r="41.7393"
   fx="28.3633"
   fy="26.532499"
   gradientUnits="userSpaceOnUse">
		<stop
   offset="0"
   style="stop-color:#F7941E"
   id="stop6" />
		<stop
   offset="1"
   style="stop-color:#BE1E2D"
   id="stop8" />
	</radialGradient>
	<path
   d="m 31.503,69.828 c 2.314,0.102 4.802,-0.381 7.324,-1.025 0.325,0.082 0.862,0.432 0.887,0.174 1.174,-11.969 4.288,1.654 20.224,-5.77 24.096,-11.227 6.471,-34.563 6.471,-34.563 0,0 1.541,4.78 -0.625,9.655 -2.168,4.875 -9.26,4.759 -9.26,4.759 0,0 3.414,-4.712 3.414,-10.337 0,-11.94 -0.748,-13.224 -11.904,-23.993 -10.248,-9.891 -29.367,-7.12 -31.959,-6.69 0.615,0.015 2.361,0.514 6.875,4.052 6.167,4.833 -1.5,16.167 -12.333,22.553 -10.833,6.386 -8.314,19.862 -8.314,19.862 0,0 1.146,20.086 29.2,21.323 z"
   id="path10"
   inkscape:connector-curvature="0"
   style="fill:url(#SVGID_1_)" />
	<radialGradient
   id="SVGID_2_"
   cx="15.9224"
   cy="2.0645001"
   r="0.1086"
   gradientUnits="userSpaceOnUse">
		<stop
   offset="0"
   style="stop-color:#F7941E"
   id="stop13" />
		<stop
   offset="1"
   style="stop-color:#BE1E2D"
   id="stop15" />
	</radialGradient>
	<path
   d="m 15.771,2.091 c 0,0 0.11,-0.02 0.303,-0.052 -0.225,-0.006 -0.303,0.052 -0.303,0.052 z"
   id="path17"
   inkscape:connector-curvature="0"
   style="fill:url(#SVGID_2_)" />
</g>
<linearGradient
   id="SVGID_3_"
   gradientUnits="userSpaceOnUse"
   x1="28.762699"
   y1="77.763702"
   x2="36.429199"
   y2="51.430199"
   gradientTransform="translate(-1.4827059,0.33588253)">
	<stop
   offset="0.076"
   style="stop-color:#F7941E"
   id="stop20" />
	<stop
   offset="1"
   style="stop-color:#FFF200"
   id="stop22" />
</linearGradient>
<path
   d="m 26.520294,66.690882 c 0,0 -21.6129999,-0.475 -19.9899999,-18.625 1.792,-13.759 10.9579999,-13.269 17.6249999,-16.988 6.667,-3.719 15.44,-14.386 10.125,-20.511 4.33,0.6 29.768,14.644 12.5,40.125 5.25,2.203 16.344,-1.527 18.844,-5.359 -1.125,14.874 -5.771,21.692 -39.104,21.358 z"
   id="path24"
   inkscape:connector-curvature="0"
   style="fill:url(#SVGID_3_)" />
<linearGradient
   id="SVGID_4_"
   gradientUnits="userSpaceOnUse"
   x1="39.087399"
   y1="37.900902"
   x2="50.7537"
   y2="61.733898"
   gradientTransform="translate(-1.4827059,0.33588253)">
	<stop
   offset="0"
   style="stop-color:#565759"
   id="stop27" />
	<stop
   offset="0.1758"
   style="stop-color:#808285"
   id="stop29" />
	<stop
   offset="1"
   style="stop-color:#565759"
   id="stop31" />
</linearGradient>
<path
   d="m 36.380294,17.592882 c 0,0 9.66,7.068 11.279,10.652 0.779,6.25 3.418,37.084 2.219,37.667 -1.199,0.584 -9.958,4.42 -11.457,4.393 -1.498,-0.03 -3.003,-50.365 -2.041,-52.712 z"
   id="path33"
   inkscape:connector-curvature="0"
   style="fill:url(#SVGID_4_)" />
<linearGradient
   id="SVGID_5_"
   gradientUnits="userSpaceOnUse"
   x1="37.1362"
   y1="43.473099"
   x2="52.167999"
   y2="43.473099"
   gradientTransform="translate(-1.4827059,0.33588253)">
	<stop
   offset="0.0121"
   style="stop-color:#4F4F51"
   id="stop36" />
	<stop
   offset="1"
   style="stop-color:#333334"
   id="stop38" />
</linearGradient>
<path
   d="m 39.345294,70.569882 h -0.933 c -0.118,-0.002 -0.34,-0.045 -0.511,-0.305 -1.777,-2.705 -2.75,-51.227 -1.983,-53.096 l 0.214,-0.121 1.229,0.474 c 0.344,0.204 9.1,6.621 10.754,10.283 l 0.041,0.144 c 0.4,3.215 1.262,12.625 1.854,20.986 1.182,16.66 0.549,16.969 0.088,17.193 -0.599,0.291 -8.964,4.442 -10.753,4.442 z m -0.914,-1 0.007,0.5 v -0.5 c -0.003,0 -0.005,0 -0.007,0 z m -1.715,-51.337 c -0.683,6.26 0.857,47.868 1.951,51.315 1.828,-0.297 9.194,-3.467 10.874,-4.264 0.793,-2.379 -1.51,-30.19 -2.367,-37.134 -1.39,-2.92 -8.317,-8.299 -10.458,-9.917 z"
   id="path40"
   inkscape:connector-curvature="0"
   style="fill:url(#SVGID_5_)" />
<linearGradient
   id="SVGID_6_"
   gradientUnits="userSpaceOnUse"
   x1="18.5103"
   y1="19.992701"
   x2="39.426399"
   y2="73.075203"
   gradientTransform="translate(-1.4827059,0.33588253)">
	<stop
   offset="0.0121"
   style="stop-color:#757679"
   id="stop43" />
	<stop
   offset="0.4788"
   style="stop-color:#E6E7E8"
   id="stop45" />
	<stop
   offset="1"
   style="stop-color:#95979A"
   id="stop47" />
</linearGradient>
<path
   d="m 40.975294,62.569882 c 0.484,8.061 1.609,7.729 -6.891,7.701 l -13.687,0.014 c -7.188,0.016 -6.25,0.002 -5.813,-8.455 l 2.25,-36.866 c 0.375,-7.177 0.688,-7.578 6.917,-7.578 l 7.416,0.009 c 8.479,-0.009 7.084,-0.649 7.917,11.585 l 1.891,33.59 z"
   id="path49"
   inkscape:connector-curvature="0"
   style="fill:url(#SVGID_6_)" />
<polygon
   points="39.778,23.612 39.849,25.081 18.747,25.081 18.927,23.612 "
   id="polygon51"
   style="fill:#f6f6f6"
   transform="translate(-1.4827059,0.33588253)" />
<polygon
   points="40.015,26.894 40.112,28.362 18.583,28.362 18.667,26.894 "
   id="polygon53"
   style="fill:#f6f6f6"
   transform="translate(-1.4827059,0.33588253)" />
<polygon
   points="40.183,30.081 40.262,31.55 18.409,31.55 18.511,30.081 "
   id="polygon55"
   style="fill:#f6f6f6"
   transform="translate(-1.4827059,0.33588253)" />
<g
   id="g57"
   transform="translate(-1.4827059,0.33588253)">
	<linearGradient
   id="SVGID_7_"
   gradientUnits="userSpaceOnUse"
   x1="15.2715"
   y1="43.5"
   x2="43.291"
   y2="43.5">
		<stop
   offset="0.0121"
   style="stop-color:#4F4F51"
   id="stop60" />
		<stop
   offset="1"
   style="stop-color:#333334"
   id="stop62" />
	</linearGradient>
	<path
   d="M 43.14,64.736 C 43.082,64.002 43.015,63.162 42.957,62.205 L 41.066,28.61 C 40.951,26.919 40.878,25.474 40.816,24.239 40.474,17.426 40.43,16.551 34.909,16.551 L 32.65,16.559 25.233,16.55 c -6.473,0 -7.027,0.602 -7.416,8.048 l -2.25,36.871 c -0.05,0.973 -0.107,1.832 -0.157,2.594 -0.201,3.031 -0.302,4.553 0.546,5.459 0.83,0.887 2.414,0.93 5.142,0.93 l 14.468,-0.016 2.303,0.01 c 2.702,0 4.057,-0.09 4.809,-0.904 0.777,-0.841 0.671,-2.167 0.462,-4.806 z M 18.573,28.644 h 21.493 c 10e-4,0.01 10e-4,0.019 0.002,0.028 l 0.095,1.69 H 18.468 l 0.105,-1.718 z m 21.3,-3.282 c 0.029,0.564 0.063,1.17 0.101,1.813 H 18.663 l 0.11,-1.813 h 21.1 z m -14.639,-7.812 7.417,0.009 2.259,-0.008 c 4.475,0 4.568,0.017 4.888,6.343 h -20.94 c 0.341,-6.203 0.672,-6.344 6.376,-6.344 z m 16.709,51.313 c -0.457,0.494 -1.678,0.582 -4.074,0.582 l -2.302,-0.01 -14.469,0.016 c -2.388,0 -3.876,-0.041 -4.412,-0.613 -0.551,-0.588 -0.454,-2.053 -0.278,-4.709 0.051,-0.766 0.108,-1.631 0.158,-2.605 l 1.813,-29.692 h 21.867 l 1.713,30.432 c 0.058,0.965 0.125,1.811 0.184,2.551 0.174,2.2 0.28,3.528 -0.2,4.048 z"
   id="path64"
   inkscape:connector-curvature="0"
   style="fill:url(#SVGID_7_)" />
	<linearGradient
   id="SVGID_8_"
   gradientUnits="userSpaceOnUse"
   x1="18.7334"
   y1="62.644001"
   x2="40.025398"
   y2="62.644001">
		<stop
   offset="0.0121"
   style="stop-color:#4F4F51"
   id="stop67" />
		<stop
   offset="1"
   style="stop-color:#333334"
   id="stop69" />
	</linearGradient>
	<polygon
   points="39.943,62.082 18.818,62.082 18.733,63.207 40.025,63.207 "
   id="polygon71"
   style="fill:url(#SVGID_8_)" />
	<linearGradient
   id="SVGID_9_"
   gradientUnits="userSpaceOnUse"
   x1="19.005899"
   y1="59.310101"
   x2="39.713902"
   y2="59.310101">
		<stop
   offset="0.0121"
   style="stop-color:#4F4F51"
   id="stop74" />
		<stop
   offset="1"
   style="stop-color:#333334"
   id="stop76" />
	</linearGradient>
	<polygon
   points="39.714,59.873 39.589,58.748 19.11,58.748 19.006,59.873 "
   id="polygon78"
   style="fill:url(#SVGID_9_)" />
</g>
<radialGradient
   id="SVGID_10_"
   cx="29.398899"
   cy="52.060101"
   r="2.651"
   gradientUnits="userSpaceOnUse">
	<stop
   offset="0"
   style="stop-color:#C9EBFC"
   id="stop81" />
	<stop
   offset="1"
   style="stop-color:#00AEEF"
   id="stop83" />
</radialGradient>
<ellipse
   cx="29.399"
   cy="52.060001"
   rx="2.4790001"
   ry="2.813"
   id="ellipse85"
   sodipodi:cx="29.399"
   sodipodi:cy="52.060001"
   sodipodi:rx="2.4790001"
   sodipodi:ry="2.813"
   style="fill:url(#SVGID_10_)"
   transform="translate(-1.4827059,0.33588253)" />
<path
   d="m 27.909294,50.417882 c -0.963,0 -1.744,0.887 -1.744,1.979 0,1.094 0.781,1.979 1.744,1.979 0.964,0 1.745,-0.885 1.745,-1.979 0,-1.093 -0.782,-1.979 -1.745,-1.979 z m 0.006,3.578 c -0.778,0 -1.41,-0.717 -1.41,-1.6 0,-0.885 0.632,-1.6 1.41,-1.6 0.779,0 1.411,0.715 1.411,1.6 10e-4,0.883 -0.631,1.6 -1.411,1.6 z"
   id="path87"
   inkscape:connector-curvature="0"
   style="fill:#dcf2fd" />
<g
   id="g89"
   transform="translate(-1.4827059,0.33588253)">
	<g
   id="g91">
		<path
   d="M 68.467,11.846 C 66.301,6.892 59.998,4.863 54.389,7.315 c -5.607,2.452 -8.399,8.456 -6.232,13.41 0.982,2.25 2.824,3.889 5.063,4.786 -0.945,1.142 -3.779,4.279 -8.125,6.682 4.896,0.301 11.24,-1.871 14.341,-6.096 0.938,-0.168 1.877,-0.438 2.797,-0.841 5.609,-2.452 8.4,-8.456 6.234,-13.41 z"
   id="path93"
   inkscape:connector-curvature="0"
   style="fill:#ffffff" />
		<path
   d="m 46.009,32.721 c 0,0 0,0 0,0 -0.32,0 -0.636,-0.01 -0.946,-0.029 l -1.714,-0.105 1.503,-0.831 c 3.724,-2.059 6.308,-4.651 7.548,-6.058 -2.139,-1.022 -3.795,-2.697 -4.703,-4.772 -2.273,-5.198 0.639,-11.51 6.492,-14.068 1.643,-0.718 3.359,-1.083 5.104,-1.083 4.357,0 8.049,2.25 9.633,5.872 2.271,5.199 -0.641,11.51 -6.492,14.068 -0.852,0.372 -1.764,0.654 -2.715,0.838 -3.225,4.237 -9.342,6.168 -13.71,6.168 z M 59.293,6.774 c -1.605,0 -3.188,0.336 -4.703,0.999 -5.348,2.338 -8.028,8.059 -5.977,12.752 0.889,2.034 2.592,3.64 4.793,4.522 l 0.637,0.255 -0.439,0.528 c -0.896,1.083 -3.199,3.622 -6.696,5.863 4.085,-0.242 9.347,-2.109 12.126,-5.893 l 0.117,-0.161 0.197,-0.035 c 0.943,-0.169 1.846,-0.44 2.686,-0.807 5.346,-2.338 8.027,-8.059 5.977,-12.752 C 66.588,8.794 63.248,6.774 59.293,6.774 z"
   id="path95"
   inkscape:connector-curvature="0" />
	</g>
	<path
   d="m 55.889,23.238 c -0.994,-0.384 -1.393,-1.395 -1.01,-2.387 0.4,-1.031 1.379,-1.464 2.391,-1.073 1.012,0.391 1.406,1.356 1.027,2.395 -0.383,0.993 -1.34,1.479 -2.371,1.081 l -0.037,-0.016 z"
   id="path97"
   inkscape:connector-curvature="0" />
	<polygon
   points="59.143,18.381 56.967,17.54 59.891,8.729 62.906,9.894 "
   id="polygon99" />
</g>
</svg>