<?xml version="1.0" encoding="UTF-8" standalone="no"?>
<!-- Generator: Adobe Illustrator 15.0.0, SVG Export Plug-In . SVG Version: 6.00 Build 0)  -->

<svg
   xmlns:dc="http://purl.org/dc/elements/1.1/"
   xmlns:cc="http://creativecommons.org/ns#"
   xmlns:rdf="http://www.w3.org/1999/02/22-rdf-syntax-ns#"
   xmlns:svg="http://www.w3.org/2000/svg"
   xmlns="http://www.w3.org/2000/svg"
   xmlns:sodipodi="http://sodipodi.sourceforge.net/DTD/sodipodi-0.dtd"
   xmlns:inkscape="http://www.inkscape.org/namespaces/inkscape"
   version="1.1"
   id="Layer_1"
   x="0px"
   y="0px"
   width="74"
   height="74"
   viewBox="0 0 74 74"
   enable-background="new 0 0 73.583 71.417"
   xml:space="preserve"
   inkscape:version="0.48.0 r9654"
   sodipodi:docname="notifry_hush.svg"
   inkscape:export-filename="/home/daniel/notifry/android/assets/notifry_hush.png"
   inkscape:export-xdpi="87.567566"
   inkscape:export-ydpi="87.567566"><metadata
   id="metadata114"><rdf:RDF><cc:Work
       rdf:about=""><dc:format>image/svg+xml</dc:format><dc:type
         rdf:resource="http://purl.org/dc/dcmitype/StillImage" /><dc:title></dc:title></cc:Work></rdf:RDF></metadata><defs
   id="defs112" /><sodipodi:namedview
   pagecolor="#ffffff"
   bordercolor="#666666"
   borderopacity="1"
   objecttolerance="10"
   gridtolerance="10"
   guidetolerance="10"
   inkscape:pageopacity="0"
   inkscape:pageshadow="2"
   inkscape:window-width="754"
   inkscape:window-height="560"
   id="namedview110"
   showgrid="false"
   inkscape:zoom="4.0466556"
   inkscape:cx="36.7915"
   inkscape:cy="35.7085"
   inkscape:window-x="550"
   inkscape:window-y="174"
   inkscape:window-maximized="0"
   inkscape:current-layer="Layer_1" />
<g
   id="g3"
   transform="translate(-0.74135294,-0.38241155)">
	
		<radialGradient
   id="SVGID_1_"
   cx="37.170898"
   cy="43.196301"
   r="41.779099"
   fx="28.3549"
   fy="26.446199"
   gradientTransform="matrix(1,0,0,0.6316,0,25.7305)"
   gradientUnits="userSpaceOnUse">
		<stop
   offset="0"
   style="stop-color:#F7941E"
   id="stop6" />
		<stop
   offset="1"
   style="stop-color:#BE1E2D"
   id="stop8" />
	</radialGradient>
	<path
   d="m 31.503,69.833 c 2.314,0.064 4.802,-0.241 7.324,-0.647 0.325,0.052 0.862,0.272 0.887,0.109 1.174,-7.559 4.288,1.045 20.224,-3.644 24.096,-7.09 6.471,-21.829 6.471,-21.829 0,0 1.541,3.019 -0.625,6.098 -2.168,3.079 -9.26,3.006 -9.26,3.006 0,0 3.414,-2.977 3.414,-6.528 0,-7.542 -0.748,-8.353 -11.904,-15.153 -10.248,-6.248 -27.46,-4.665 -30.053,-4.394 0.615,0.009 0.454,0.493 4.969,2.728 6.167,3.052 -1.5,10.21 -12.333,14.244 -10.833,4.034 -8.314,12.543 -8.314,12.543 0,0 1.146,12.686 29.2,13.467 z"
   id="path10"
   inkscape:connector-curvature="0"
   style="fill:url(#SVGID_1_)" />
</g>
<linearGradient
   id="SVGID_2_"
   gradientUnits="userSpaceOnUse"
   x1="31.3076"
   y1="76.967796"
   x2="36.402199"
   y2="59.468601"
   gradientTransform="translate(-0.74135294,-0.38241155)">
	<stop
   offset="0.076"
   style="stop-color:#F7941E"
   id="stop13" />
	<stop
   offset="1"
   style="stop-color:#FFF200"
   id="stop15" />
</linearGradient>
<path
   d="m 27.261647,67.256588 c 0,0 -21.6129999,-0.3 -19.9899999,-11.763 1.792,-8.69 10.9579999,-8.38 17.6249999,-10.729 6.667,-2.349 15.44,-9.086 10.125,-12.955 4.33,0.378 29.768,9.249 12.5,25.342 5.25,1.392 16.344,-0.965 18.844,-3.385 -1.125,9.395 -5.771,13.701 -39.104,13.49 z"
   id="path17"
   inkscape:connector-curvature="0"
   style="fill:url(#SVGID_2_)" />
<linearGradient
   id="SVGID_3_"
   gradientUnits="userSpaceOnUse"
   x1="39.087898"
   y1="37.901901"
   x2="50.7542"
   y2="61.734901"
   gradientTransform="translate(-0.74135294,-0.38241155)">
	<stop
   offset="0"
   style="stop-color:#565759"
   id="stop20" />
	<stop
   offset="0.1758"
   style="stop-color:#808285"
   id="stop22" />
	<stop
   offset="1"
   style="stop-color:#565759"
   id="stop24" />
</linearGradient>
<path
   d="m 37.121647,16.874588 c 0,0 9.66,7.068 11.279,10.652 0.779,6.25 3.418,37.084 2.219,37.667 -1.199,0.584 -9.958,4.42 -11.457,4.393 -1.498,-0.03 -3.003,-50.365 -2.041,-52.712 z"
   id="path26"
   inkscape:connector-curvature="0"
   style="fill:url(#SVGID_3_)" />
<linearGradient
   id="SVGID_4_"
   gradientUnits="userSpaceOnUse"
   x1="37.1362"
   y1="43.473099"
   x2="52.167999"
   y2="43.473099"
   gradientTransform="translate(-0.74135294,-0.38241155)">
	<stop
   offset="0.0121"
   style="stop-color:#4F4F51"
   id="stop29" />
	<stop
   offset="1"
   style="stop-color:#333334"
   id="stop31" />
</linearGradient>
<path
   d="m 40.086647,69.851588 h -0.933 c -0.118,-0.002 -0.34,-0.045 -0.511,-0.305 -1.777,-2.705 -2.75,-51.227 -1.983,-53.096 l 0.214,-0.121 1.229,0.474 c 0.344,0.204 9.1,6.621 10.754,10.283 l 0.041,0.144 c 0.4,3.215 1.262,12.625 1.854,20.986 1.182,16.66 0.549,16.969 0.088,17.193 -0.599,0.291 -8.964,4.442 -10.753,4.442 z m -0.914,-1 0.007,0.5 v -0.5 c -0.003,0 -0.005,0 -0.007,0 z m -1.715,-51.337 c -0.683,6.26 0.857,47.868 1.951,51.315 1.828,-0.297 9.194,-3.467 10.874,-4.264 0.793,-2.379 -1.51,-30.19 -2.367,-37.134 -1.39,-2.92 -8.317,-8.299 -10.458,-9.917 z"
   id="path33"
   inkscape:connector-curvature="0"
   style="fill:url(#SVGID_4_)" />
<linearGradient
   id="SVGID_5_"
   gradientUnits="userSpaceOnUse"
   x1="18.5098"
   y1="19.9932"
   x2="39.4259"
   y2="73.075996"
   gradientTransform="translate(-0.74135294,-0.38241155)">
	<stop
   offset="0.0121"
   style="stop-color:#757679"
   id="stop36" />
	<stop
   offset="0.4788"
   style="stop-color:#E6E7E8"
   id="stop38" />
	<stop
   offset="1"
   style="stop-color:#95979A"
   id="stop40" />
</linearGradient>
<path
   d="m 41.716647,61.851588 c 0.484,8.061 1.609,7.729 -6.891,7.701 l -13.687,0.014 c -7.188,0.016 -6.25,0.002 -5.813,-8.455 l 2.25,-36.866 c 0.375,-7.177 0.688,-7.578 6.917,-7.578 l 7.416,0.009 c 8.479,-0.009 7.084,-0.649 7.917,11.585 l 1.891,33.59 z"
   id="path42"
   inkscape:connector-curvature="0"
   style="fill:url(#SVGID_5_)" />
<polygon
   points="39.849,25.081 18.747,25.081 18.927,23.612 39.778,23.612 "
   id="polygon44"
   style="fill:#f6f6f6"
   transform="translate(-0.74135294,-0.38241155)" />
<polygon
   points="40.112,28.362 18.583,28.362 18.667,26.894 40.015,26.894 "
   id="polygon46"
   style="fill:#f6f6f6"
   transform="translate(-0.74135294,-0.38241155)" />
<polygon
   points="40.262,31.55 18.409,31.55 18.511,30.081 40.183,30.081 "
   id="polygon48"
   style="fill:#f6f6f6"
   transform="translate(-0.74135294,-0.38241155)" />
<g
   id="g50"
   transform="translate(-0.74135294,-0.38241155)">
	<linearGradient
   id="SVGID_6_"
   gradientUnits="userSpaceOnUse"
   x1="15.2715"
   y1="43.5"
   x2="43.291"
   y2="43.5">
		<stop
   offset="0.0121"
   style="stop-color:#4F4F51"
   id="stop53" />
		<stop
   offset="1"
   style="stop-color:#333334"
   id="stop55" />
	</linearGradient>
	<path
   d="M 43.14,64.736 C 43.082,64.002 43.015,63.162 42.957,62.205 L 41.066,28.61 C 40.951,26.919 40.878,25.474 40.816,24.239 40.474,17.426 40.43,16.551 34.909,16.551 L 32.65,16.559 25.233,16.55 c -6.473,0 -7.027,0.602 -7.416,8.048 l -2.25,36.871 c -0.05,0.973 -0.107,1.832 -0.157,2.594 -0.201,3.031 -0.302,4.553 0.546,5.459 0.83,0.887 2.414,0.93 5.142,0.93 l 14.468,-0.016 2.303,0.01 c 2.702,0 4.057,-0.09 4.809,-0.904 0.777,-0.841 0.671,-2.167 0.462,-4.806 z M 18.573,28.644 h 21.493 c 10e-4,0.01 10e-4,0.019 0.002,0.028 l 0.095,1.69 H 18.468 l 0.105,-1.718 z m 21.3,-3.282 c 0.029,0.564 0.063,1.17 0.101,1.813 H 18.663 l 0.11,-1.813 h 21.1 z m -14.639,-7.812 7.417,0.009 2.259,-0.008 c 4.475,0 4.568,0.017 4.888,6.343 h -20.94 c 0.341,-6.203 0.672,-6.344 6.376,-6.344 z m 16.709,51.313 c -0.457,0.494 -1.678,0.582 -4.074,0.582 l -2.302,-0.01 -14.469,0.016 c -2.388,0 -3.876,-0.041 -4.412,-0.613 -0.551,-0.588 -0.454,-2.053 -0.278,-4.709 0.051,-0.766 0.108,-1.631 0.158,-2.605 l 1.813,-29.692 h 21.867 l 1.713,30.432 c 0.058,0.965 0.125,1.811 0.184,2.551 0.174,2.2 0.28,3.528 -0.2,4.048 z"
   id="path57"
   inkscape:connector-curvature="0"
   style="fill:url(#SVGID_6_)" />
	<linearGradient
   id="SVGID_7_"
   gradientUnits="userSpaceOnUse"
   x1="18.7334"
   y1="62.644001"
   x2="40.025398"
   y2="62.644001">
		<stop
   offset="0.0121"
   style="stop-color:#4F4F51"
   id="stop60" />
		<stop
   offset="1"
   style="stop-color:#333334"
   id="stop62" />
	</linearGradient>
	<polygon
   points="18.818,62.082 18.733,63.207 40.025,63.207 39.943,62.082 "
   id="polygon64"
   style="fill:url(#SVGID_7_)" />
	<linearGradient
   id="SVGID_8_"
   gradientUnits="userSpaceOnUse"
   x1="19.005899"
   y1="59.310101"
   x2="39.713902"
   y2="59.310101">
		<stop
   offset="0.0121"
   style="stop-color:#4F4F51"
   id="stop67" />
		<stop
   offset="1"
   style="stop-color:#333334"
   id="stop69" />
	</linearGradient>
	<polygon
   points="39.589,58.748 19.11,58.748 19.006,59.873 39.714,59.873 "
   id="polygon71"
   style="fill:url(#SVGID_8_)" />
</g>
<radialGradient
   id="SVGID_9_"
   cx="29.398899"
   cy="52.060101"
   r="2.651"
   gradientUnits="userSpaceOnUse">
	<stop
   offset="0"
   style="stop-color:#C9EBFC"
   id="stop74" />
	<stop
   offset="1"
   style="stop-color:#00AEEF"
   id="stop76" />
</radialGradient>
<ellipse
   cx="29.399"
   cy="52.060001"
   rx="2.4790001"
   ry="2.813"
   id="ellipse78"
   sodipodi:cx="29.399"
   sodipodi:cy="52.060001"
   sodipodi:rx="2.4790001"
   sodipodi:ry="2.813"
   style="fill:url(#SVGID_9_)"
   transform="translate(-0.74135294,-0.38241155)" />
<path
   d="m 28.650647,49.699588 c -0.963,0 -1.744,0.887 -1.744,1.979 0,1.094 0.781,1.979 1.744,1.979 0.964,0 1.745,-0.885 1.745,-1.979 0,-1.093 -0.782,-1.979 -1.745,-1.979 z m 0.006,3.578 c -0.778,0 -1.41,-0.717 -1.41,-1.6 0,-0.885 0.632,-1.6 1.41,-1.6 0.779,0 1.411,0.715 1.411,1.6 10e-4,0.883 -0.631,1.6 -1.411,1.6 z"
   id="path80"
   inkscape:connector-curvature="0"
   style="fill:#dcf2fd" />
<linearGradient
   id="SVGID_10_"
   gradientUnits="userSpaceOnUse"
   x1="36.687"
   y1="44.352501"
   x2="38.098301"
   y2="11.4999"
   gradientTransform="translate(-0.74135294,-0.38241155)">
	<stop
   offset="0"
   style="stop-color:#56CAEF"
   id="stop83" />
	<stop
   offset="1"
   style="stop-color:#A5DFF9"
   id="stop85" />
</linearGradient>
<path
   stroke-miterlimit="10"
   d="m 67.618647,30.702588 c -8.534,-0.604 -18.166,1.341 -18.166,1.341 0,0 8.759,-2.016 11.552,-4.323 3.833,-3.167 3.908,-10.232 -0.625,-7.792 -4.534,2.44 -11.979,7.598 -11.979,7.598 0,0 0.937,-16.644 -1.062,-27.90899955 h -29.497 c -0.287,5.80200005 -1.352,27.08399955 -1.162,33.98299955 -2.237,1.565 -20.6739999,-7.422 -12.5489999,1.141 4.244,4.472 7.1509999,3.557 9.1249999,3.25 -0.081,2.597 -13.23999994,-0.028 -10.8129999,3.25 1.509,2.037 9.5189999,4.011 14.0809999,3.477 -1.781,1.925 -4.055,4.914 -1.247,5.134 3.963,0.311 11.053,-9.06 12.648,-13.902 3.142,-0.03 12.249,-0.056 13.038,2.497 0.877,2.835 10.704,13.356 12.042,7.481 1.056,-4.637 -1.193,-8.876 -3.016,-9.61 1.805,-0.265 6.613,2.041 10.079,2.129 5.601,0.143 16.085,-7.141 7.551,-7.745 z"
   id="path87"
   inkscape:connector-curvature="0"
   style="fill:url(#SVGID_10_);stroke:#00a3d7;stroke-width:1;stroke-miterlimit:10" />
<linearGradient
   id="SVGID_11_"
   gradientUnits="userSpaceOnUse"
   x1="47.6133"
   y1="45.0527"
   x2="45.8633"
   y2="30.3027"
   gradientTransform="translate(-0.74135294,-0.38241155)">
	<stop
   offset="0"
   style="stop-color:#56CAEF"
   id="stop90" />
	<stop
   offset="1"
   style="stop-color:#A5DFF9"
   id="stop92" />
</linearGradient>
<path
   d="m 45.476647,28.821588 c 0,0 -0.45,-19.5000002 -1.335,-20.9999997 -0.885,-1.4999998 -4.388,18.6499997 1.335,20.9999997 z"
   id="path94"
   inkscape:connector-curvature="0"
   style="fill:url(#SVGID_11_)" />
<linearGradient
   id="SVGID_12_"
   gradientUnits="userSpaceOnUse"
   x1="27.808599"
   y1="45.529301"
   x2="26.058599"
   y2="30.779301"
   gradientTransform="matrix(0.9978,0.0664,-0.0664,0.9978,0.41394706,-2.0309116)">
	<stop
   offset="0"
   style="stop-color:#56CAEF"
   id="stop97" />
	<stop
   offset="1"
   style="stop-color:#A5DFF9"
   id="stop99" />
</linearGradient>
<path
   d="m 22.136647,29.740588 1.821,-27.3539995 c 0,0 5.428,24.6529995 -1.821,27.3539995 z"
   id="path101"
   inkscape:connector-curvature="0"
   style="fill:url(#SVGID_12_)" />
<linearGradient
   id="SVGID_13_"
   gradientUnits="userSpaceOnUse"
   x1="4.5840001"
   y1="24.346701"
   x2="14.2896"
   y2="24.346701"
   gradientTransform="translate(-0.74135294,-0.38241155)">
	<stop
   offset="0"
   style="stop-color:#56CAEF"
   id="stop104" />
	<stop
   offset="1"
   style="stop-color:#A5DFF9"
   id="stop106" />
</linearGradient>
<path
   stroke-miterlimit="10"
   d="m 13.517647,27.041588 c 0.673,0.029 -9.9999999,-9.196 -9.6669999,-5.112 0.333,4.084 6.3249999,4.97 9.6669999,5.112 z"
   id="path108"
   inkscape:connector-curvature="0"
   style="fill:url(#SVGID_13_);stroke:#00a3d7;stroke-width:1;stroke-miterlimit:10" />
</svg>